<svg xmlns="http://www.w3.org/2000/svg" xmlns:xlink="http://www.w3.org/1999/xlink" width="295.026" height="82.328" viewBox="0 0 295.026 82.328">
  <defs>
    <linearGradient id="linear-gradient" x1="0.922" x2="0.266" y2="1" gradientUnits="objectBoundingBox">
      <stop offset="0" stop-color="#4e0735"/>
      <stop offset="0.504" stop-color="#870b5b"/>
      <stop offset="1" stop-color="#e61e25"/>
    </linearGradient>
  </defs>
  <g id="Group_9976" data-name="Group 9976" transform="translate(-1479 -5484.246)">
    <g id="Group_9946" data-name="Group 9946" transform="translate(1469 5484.246)">
      <g id="Mega_Logo" data-name="Mega Logo" transform="translate(10)">
        <path id="Path_36" data-name="Path 36" d="M37.487,74.317l-2.455-5.688,22.3-22.3V26.9L12.859,71.4,6.18,68.637,58.317,16.5l5.688,2.357V39.671L87.177,16.5l5.688,2.357v51.45H86.2V26.9L64,49.092V70.986l-3.217,3.331ZM57.335,55.754,45.68,67.418H57.343V55.754Z" transform="translate(-6.18 -16.5)" fill="url(#linear-gradient)"/>
      </g>
      <g id="Group_9985" data-name="Group 9985" transform="translate(-18.462 -141.175)">
        <path id="Path_8299" data-name="Path 8299" d="M-178.851-53.32l16.642,41.535,16.642-41.535h8.706V-2.415h-6.713V-22.239l.629-21.4L-159.657-2.415H-164.8l-16.677-41.116.664,21.292V-2.415h-6.713V-53.32Zm70.316,51.6a16.529,16.529,0,0,1-12.517-5.052q-4.825-5.052-4.825-13.513V-21.47a22.7,22.7,0,0,1,2.15-10.052,16.773,16.773,0,0,1,6.014-6.923,15.119,15.119,0,0,1,8.373-2.5q7.377,0,11.468,4.86t4.091,13.915v2.692h-25.627a13.447,13.447,0,0,0,3.269,9.038A10.275,10.275,0,0,0-108.185-7a11.265,11.265,0,0,0,5.8-1.4A14.583,14.583,0,0,0-98.221-12.1l3.951,3.077Q-99.025-1.716-108.535-1.716Zm-.8-33.914a8.627,8.627,0,0,0-6.573,2.849,13.85,13.85,0,0,0-3.286,7.989h18.95v-.489a12.319,12.319,0,0,0-2.657-7.639A8.123,8.123,0,0,0-109.339-35.629Zm23.292,13.985q0-8.845,4.091-14.072a13.082,13.082,0,0,1,10.838-5.227q6.923,0,10.8,4.895l.315-4.2h5.909v36.92q0,7.342-4.353,11.573t-11.695,4.23a19.456,19.456,0,0,1-8.006-1.748,13.782,13.782,0,0,1-5.979-4.79l3.356-3.881A12.648,12.648,0,0,0-70.594,7.2a9.91,9.91,0,0,0,7.36-2.657q2.64-2.657,2.64-7.482V-6.191q-3.881,4.475-10.594,4.475A12.922,12.922,0,0,1-81.939-7.065Q-86.047-12.414-86.047-21.644Zm6.5.734q0,6.4,2.622,10.052A8.52,8.52,0,0,0-69.58-7.2a9.474,9.474,0,0,0,8.985-5.559V-30.035a9.585,9.585,0,0,0-8.915-5.419,8.6,8.6,0,0,0-7.377,3.671Q-79.544-28.112-79.544-20.91Zm60.352,18.5A13.587,13.587,0,0,1-20.1-6.4,14.432,14.432,0,0,1-30.87-1.716,13.354,13.354,0,0,1-40.047-4.88,10.237,10.237,0,0,1-43.631-12.9a10.694,10.694,0,0,1,4.493-9.178Q-34.646-25.35-26.5-25.35h6.293v-2.972a7.264,7.264,0,0,0-2.028-5.4q-2.028-2.01-5.979-2.01a9.431,9.431,0,0,0-5.8,1.748,5.151,5.151,0,0,0-2.342,4.23h-6.5a8.926,8.926,0,0,1,2.01-5.472A13.721,13.721,0,0,1-35.4-39.405a18.349,18.349,0,0,1,7.569-1.538q6.538,0,10.244,3.269a11.792,11.792,0,0,1,3.846,9v17.411a21.287,21.287,0,0,0,1.329,8.286v.559Zm-10.733-4.93a11.368,11.368,0,0,0,5.769-1.573,9.517,9.517,0,0,0,3.951-4.091V-20.77h-5.07q-11.887,0-11.887,6.958a5.888,5.888,0,0,0,2.028,4.755A7.794,7.794,0,0,0-29.926-7.345ZM-49.4,24.317V10.742h4.438a5.152,5.152,0,0,1,3.324.914,3.293,3.293,0,0,1,1.114,2.7,2.757,2.757,0,0,1-.541,1.683,3.506,3.506,0,0,1-1.473,1.133,3.148,3.148,0,0,1,1.739,1.17,3.358,3.358,0,0,1,.639,2.056,3.631,3.631,0,0,1-1.184,2.872A4.9,4.9,0,0,1-44.7,24.317Zm1.79-6.349v4.885h2.955a2.846,2.846,0,0,0,1.972-.648,2.276,2.276,0,0,0,.723-1.785q0-2.452-2.666-2.452Zm0-1.436h2.7a2.838,2.838,0,0,0,1.879-.587,1.967,1.967,0,0,0,.7-1.594,1.934,1.934,0,0,0-.653-1.627,3.21,3.21,0,0,0-1.986-.508h-2.648Zm16.055,7.785a3.623,3.623,0,0,1-.242-1.063A3.848,3.848,0,0,1-34.673,24.5a3.561,3.561,0,0,1-2.447-.844,2.73,2.73,0,0,1-.956-2.14,2.852,2.852,0,0,1,1.2-2.447,5.648,5.648,0,0,1,3.37-.872h1.678v-.792a1.937,1.937,0,0,0-.541-1.44,2.173,2.173,0,0,0-1.594-.536,2.515,2.515,0,0,0-1.548.466,1.374,1.374,0,0,0-.625,1.128h-1.734a2.38,2.38,0,0,1,.536-1.459,3.659,3.659,0,0,1,1.454-1.114,4.893,4.893,0,0,1,2.018-.41,3.988,3.988,0,0,1,2.732.872,3.145,3.145,0,0,1,1.026,2.4v4.643a5.677,5.677,0,0,0,.354,2.21v.149ZM-34.422,23a3.031,3.031,0,0,0,1.538-.42,2.538,2.538,0,0,0,1.054-1.091v-2.07h-1.352q-3.17,0-3.17,1.855a1.57,1.57,0,0,0,.541,1.268A2.078,2.078,0,0,0-34.422,23Zm8.652-8.773.056,1.268a3.676,3.676,0,0,1,3.021-1.454q3.2,0,3.226,3.608v6.666h-1.725V17.641a2.322,2.322,0,0,0-.5-1.613,2,2,0,0,0-1.524-.522,2.489,2.489,0,0,0-1.473.448,3.039,3.039,0,0,0-.988,1.175v7.188H-27.4V14.229Zm11.719,5.417-1.082,1.128v3.543h-1.725V10h1.725v8.661l.923-1.109,3.142-3.319h2.1l-3.925,4.214,4.382,5.874h-2.023Z" transform="translate(332 199)" fill="#4d4d4f"/>
      </g>
    </g>
  </g>
</svg>
